<svg width="3921" height="2622" xmlns="http://www.w3.org/2000/svg" xmlns:xlink="http://www.w3.org/1999/xlink" xml:space="preserve" overflow="hidden"><g transform="translate(-195 -125)"><path d="M206 142.857C206 132.995 213.995 125 223.857 125L4098.14 125C4108 125 4116 132.995 4116 142.857L4116 2729.09C4116 2738.95 4108 2746.95 4098.14 2746.95L223.857 2746.95C213.995 2746.95 206 2738.95 206 2729.09Z" fill="#FFFFFF" fill-rule="evenodd"/><path d="M561.938 595.5 561.938 673.417 555.063 673.417 555.063 595.5ZM572.25 668.833 558.5 696.333 544.75 668.833Z" fill="#7F7F7F"/><path d="M923.938 599.5 923.938 677.417 917.063 677.417 917.063 599.5ZM934.25 672.833 920.5 700.333 906.75 672.833Z" fill="#7F7F7F"/><path d="M1336.94 599.5 1336.94 677.417 1330.06 677.417 1330.06 599.5ZM1347.25 672.833 1333.5 700.333 1319.75 672.833Z" fill="#7F7F7F"/><path d="M1721.94 595.5 1721.94 673.417 1715.06 673.417 1715.06 595.5ZM1732.25 668.833 1718.5 696.333 1704.75 668.833Z" fill="#7F7F7F"/><path d="M2142.94 595.5 2142.94 673.417 2136.06 673.417 2136.06 595.5ZM2153.25 668.833 2139.5 696.333 2125.75 668.833Z" fill="#7F7F7F"/><path d="M2540.94 599.5 2540.94 677.417 2534.06 677.417 2534.06 599.5ZM2551.25 672.833 2537.5 700.333 2523.75 672.833Z" fill="#7F7F7F"/><path d="M3911.94 595.5 3911.94 673.417 3905.06 673.417 3905.06 595.5ZM3922.25 668.833 3908.5 696.333 3894.75 668.833Z" fill="#7F7F7F"/><path d="M3590.94 595.5 3590.94 673.417 3584.06 673.417 3584.06 595.5ZM3601.25 668.833 3587.5 696.333 3573.75 668.833Z" fill="#7F7F7F"/><path d="M3080.94 595.5 3080.94 987.372 3074.06 987.372 3074.06 595.5ZM3091.25 982.789 3077.5 1010.29 3063.75 982.789Z" fill="#7F7F7F"/><path d="M435.5 1020.5 4042.58 1020.5" stroke="#7F7F7F" stroke-width="6.875" stroke-miterlimit="8" fill="none" fill-rule="evenodd"/><path d="M435.415 459.94 675.26 459.94 675.26 593.774 435.415 593.774Z" fill="#000000" fill-rule="evenodd" fill-opacity="0.2"/><path d="M675.26 459.94 1150.42 459.94 1150.42 593.774 675.26 593.774Z" fill="#000000" fill-rule="evenodd" fill-opacity="0.2"/><path d="M1150.42 459.94 1494.17 459.94 1494.17 593.774 1150.42 593.774Z" fill="#000000" fill-rule="evenodd" fill-opacity="0.2"/><path d="M1494.17 459.94 1934.17 459.94 1934.17 593.774 1494.17 593.774Z" fill="#000000" fill-rule="evenodd" fill-opacity="0.2"/><path d="M1934.17 459.94 2346.67 459.94 2346.67 593.774 1934.17 593.774Z" fill="#000000" fill-rule="evenodd" fill-opacity="0.2"/><path d="M2346.67 459.94 2717.92 459.94 2717.92 593.774 2346.67 593.774Z" fill="#000000" fill-rule="evenodd" fill-opacity="0.2"/><path d="M2717.92 459.94 3387.08 459.94 3387.08 593.774 2717.92 593.774Z" fill="#000000" fill-rule="evenodd" fill-opacity="0.2"/><path d="M3387.08 459.94 3767.5 459.94 3767.5 593.774 3387.08 593.774Z" fill="#000000" fill-rule="evenodd" fill-opacity="0.2"/><path d="M3767.5 459.94 4042.5 459.94 4042.5 593.774 3767.5 593.774Z" fill="#000000" fill-rule="evenodd" fill-opacity="0.2"/><path d="M675.26 193.649 675.26 596.065" stroke="#000000" stroke-width="4.58333" stroke-linejoin="round" stroke-miterlimit="10" fill="none" fill-rule="evenodd"/><path d="M1150.42 193.649 1150.42 596.065" stroke="#000000" stroke-width="4.58333" stroke-linejoin="round" stroke-miterlimit="10" fill="none" fill-rule="evenodd"/><path d="M1494.17 193.649 1494.17 596.065" stroke="#000000" stroke-width="4.58333" stroke-linejoin="round" stroke-miterlimit="10" fill="none" fill-rule="evenodd"/><path d="M1934.17 193.649 1934.17 596.065" stroke="#000000" stroke-width="4.58333" stroke-linejoin="round" stroke-miterlimit="10" fill="none" fill-rule="evenodd"/><path d="M2346.67 193.649 2346.67 596.065" stroke="#000000" stroke-width="4.58333" stroke-linejoin="round" stroke-miterlimit="10" fill="none" fill-rule="evenodd"/><path d="M2717.92 193.649 2717.92 596.065" stroke="#000000" stroke-width="4.58333" stroke-linejoin="round" stroke-miterlimit="10" fill="none" fill-rule="evenodd"/><path d="M3387.08 193.649 3387.08 596.065" stroke="#000000" stroke-width="4.58333" stroke-linejoin="round" stroke-miterlimit="10" fill="none" fill-rule="evenodd"/><path d="M3767.5 193.649 3767.5 596.065" stroke="#000000" stroke-width="4.58333" stroke-linejoin="round" stroke-miterlimit="10" fill="none" fill-rule="evenodd"/><path d="M433.123 459.94 4044.79 459.94" stroke="#000000" stroke-width="9.16667" stroke-linejoin="round" stroke-miterlimit="10" fill="none" fill-rule="evenodd"/><path d="M435.415 193.649 435.415 596.065" stroke="#000000" stroke-width="4.58333" stroke-linejoin="round" stroke-miterlimit="10" fill="none" fill-rule="evenodd"/><path d="M4042.5 193.649 4042.5 596.065" stroke="#000000" stroke-width="4.58333" stroke-linejoin="round" stroke-miterlimit="10" fill="none" fill-rule="evenodd"/><path d="M433.123 195.94 4044.79 195.94" stroke="#000000" stroke-width="4.58333" stroke-linejoin="round" stroke-miterlimit="10" fill="none" fill-rule="evenodd"/><path d="M433.123 593.774 4044.79 593.774" stroke="#000000" stroke-width="4.58333" stroke-linejoin="round" stroke-miterlimit="10" fill="none" fill-rule="evenodd"/><text font-family="Calibri,Calibri_MSFontService,sans-serif" font-weight="700" font-size="64" transform="matrix(1 0 0 1 3851.43 272)">Flag</text><text font-family="Calibri,Calibri_MSFontService,sans-serif" font-weight="700" font-size="64" transform="matrix(1 0 0 1 3530.84 272)">FCS</text><text font-family="Calibri,Calibri_MSFontService,sans-serif" font-weight="700" font-size="64" transform="matrix(1 0 0 1 3505.63 349)">(CRC)</text><text font-family="Calibri,Calibri_MSFontService,sans-serif" font-weight="700" font-size="64" transform="matrix(1 0 0 1 2822.56 272)">Information Field</text><text font-family="Calibri,Calibri_MSFontService,sans-serif" font-weight="700" font-size="64" transform="matrix(1 0 0 1 2420.28 272)">Protocol</text><text font-family="Calibri,Calibri_MSFontService,sans-serif" font-weight="700" font-size="64" transform="matrix(1 0 0 1 2468.41 349)">Field</text><text font-family="Calibri,Calibri_MSFontService,sans-serif" font-weight="700" font-size="64" transform="matrix(1 0 0 1 2041.99 272)">Control</text><text font-family="Calibri,Calibri_MSFontService,sans-serif" font-weight="700" font-size="64" transform="matrix(1 0 0 1 2076.52 349)">Field</text><text font-family="Calibri,Calibri_MSFontService,sans-serif" font-weight="700" font-size="64" transform="matrix(1 0 0 1 2090.85 426)">(UI)</text><text font-family="Calibri,Calibri_MSFontService,sans-serif" font-weight="700" font-size="64" transform="matrix(1 0 0 1 1575.63 272)">Digipeater</text><text font-family="Calibri,Calibri_MSFontService,sans-serif" font-weight="700" font-size="64" transform="matrix(1 0 0 1 1595.64 349)">Adresses</text><text font-family="Calibri,Calibri_MSFontService,sans-serif" font-weight="700" font-size="64" transform="matrix(1 0 0 1 1651.72 426)">(0</text><text font-family="Calibri,Calibri_MSFontService,sans-serif" font-weight="700" font-size="64" transform="matrix(1 0 0 1 1704.43 426)">-</text><text font-family="Calibri,Calibri_MSFontService,sans-serif" font-weight="700" font-size="64" transform="matrix(1 0 0 1 1723.9 426)">8)</text><text font-family="Calibri,Calibri_MSFontService,sans-serif" font-weight="700" font-size="64" transform="matrix(1 0 0 1 1232.24 272)">Source</text><text font-family="Calibri,Calibri_MSFontService,sans-serif" font-weight="700" font-size="64" transform="matrix(1 0 0 1 1215.51 349)">A</text><text font-family="Calibri,Calibri_MSFontService,sans-serif" font-weight="700" font-size="64" transform="matrix(1 0 0 1 1254.47 349)">d</text><text font-family="Calibri,Calibri_MSFontService,sans-serif" font-weight="700" font-size="64" transform="matrix(1 0 0 1 1288.84 349)">dress</text><text font-family="Calibri,Calibri_MSFontService,sans-serif" font-weight="700" font-size="64" transform="matrix(1 0 0 1 758.517 272)">Destination</text><text font-family="Calibri,Calibri_MSFontService,sans-serif" font-weight="700" font-size="64" transform="matrix(1 0 0 1 806.046 349)">A</text><text font-family="Calibri,Calibri_MSFontService,sans-serif" font-weight="700" font-size="64" transform="matrix(1 0 0 1 845.004 349)">d</text><text font-family="Calibri,Calibri_MSFontService,sans-serif" font-weight="700" font-size="64" transform="matrix(1 0 0 1 879.379 349)">dress</text><text font-family="Calibri,Calibri_MSFontService,sans-serif" font-weight="700" font-size="64" transform="matrix(1 0 0 1 501.77 272)">Flag</text><text font-family="Calibri,Calibri_MSFontService,sans-serif" font-weight="400" font-size="64" transform="matrix(1 0 0 1 3888.67 536)">1</text><text font-family="Calibri,Calibri_MSFontService,sans-serif" font-weight="400" font-size="64" transform="matrix(1 0 0 1 3560.96 536)">2</text><text font-family="Calibri,Calibri_MSFontService,sans-serif" font-weight="400" font-size="64" transform="matrix(1 0 0 1 2977.45 536)">1</text><text font-family="Calibri,Calibri_MSFontService,sans-serif" font-weight="400" font-size="64" transform="matrix(1 0 0 1 3010.1 536)">-</text><text font-family="Calibri,Calibri_MSFontService,sans-serif" font-weight="400" font-size="64" transform="matrix(1 0 0 1 3029.58 536)">256</text><text font-family="Calibri,Calibri_MSFontService,sans-serif" font-weight="400" font-size="64" transform="matrix(1 0 0 1 2515.96 536)">1</text><text font-family="Calibri,Calibri_MSFontService,sans-serif" font-weight="400" font-size="64" transform="matrix(1 0 0 1 2124.09 536)">1</text><text font-family="Calibri,Calibri_MSFontService,sans-serif" font-weight="400" font-size="64" transform="matrix(1 0 0 1 1655.44 536)">0</text><text font-family="Calibri,Calibri_MSFontService,sans-serif" font-weight="400" font-size="64" transform="matrix(1 0 0 1 1688.1 536)">-</text><text font-family="Calibri,Calibri_MSFontService,sans-serif" font-weight="400" font-size="64" transform="matrix(1 0 0 1 1707.58 536)">56</text><text font-family="Calibri,Calibri_MSFontService,sans-serif" font-weight="400" font-size="64" transform="matrix(1 0 0 1 1305.96 536)">7</text><text font-family="Calibri,Calibri_MSFontService,sans-serif" font-weight="400" font-size="64" transform="matrix(1 0 0 1 896.509 536)">7</text><text font-family="Calibri,Calibri_MSFontService,sans-serif" font-weight="400" font-size="64" transform="matrix(1 0 0 1 539.009 536)">1</text><path d="M435.415 1219.17 777.332 1219.17 777.332 1353.01 435.415 1353.01Z" fill="#000000" fill-rule="evenodd" fill-opacity="0.2"/><path d="M777.332 1219.17 1321.83 1219.17 1321.83 1353.01 777.332 1353.01Z" fill="#000000" fill-rule="evenodd" fill-opacity="0.2"/><path d="M1321.83 1219.17 1891.08 1219.17 1891.08 1353.01 1321.83 1353.01Z" fill="#000000" fill-rule="evenodd" fill-opacity="0.2"/><path d="M1891.08 1219.17 2443.83 1219.17 2443.83 1353.01 1891.08 1353.01Z" fill="#000000" fill-rule="evenodd" fill-opacity="0.2"/><path d="M2443.83 1219.17 2963.58 1219.17 2963.58 1353.01 2443.83 1353.01Z" fill="#000000" fill-rule="evenodd" fill-opacity="0.2"/><path d="M2963.58 1219.17 4042.5 1219.17 4042.5 1353.01 2963.58 1353.01Z" fill="#000000" fill-rule="evenodd" fill-opacity="0.2"/><path d="M777.332 1083.05 777.332 1355.3" stroke="#000000" stroke-width="4.58333" stroke-linejoin="round" stroke-miterlimit="10" fill="none" fill-rule="evenodd"/><path d="M1321.83 1083.05 1321.83 1355.3" stroke="#000000" stroke-width="4.58333" stroke-linejoin="round" stroke-miterlimit="10" fill="none" fill-rule="evenodd"/><path d="M1891.08 1083.05 1891.08 1355.3" stroke="#000000" stroke-width="4.58333" stroke-linejoin="round" stroke-miterlimit="10" fill="none" fill-rule="evenodd"/><path d="M2443.83 1083.05 2443.83 1355.3" stroke="#000000" stroke-width="4.58333" stroke-linejoin="round" stroke-miterlimit="10" fill="none" fill-rule="evenodd"/><path d="M2963.58 1083.05 2963.58 1355.3" stroke="#000000" stroke-width="4.58333" stroke-linejoin="round" stroke-miterlimit="10" fill="none" fill-rule="evenodd"/><path d="M433.123 1219.17 4044.79 1219.17" stroke="#000000" stroke-width="9.16667" stroke-linejoin="round" stroke-miterlimit="10" fill="none" fill-rule="evenodd"/><path d="M435.415 1083.05 435.415 1355.3" stroke="#000000" stroke-width="4.58333" stroke-linejoin="round" stroke-miterlimit="10" fill="none" fill-rule="evenodd"/><path d="M4042.5 1083.05 4042.5 1355.3" stroke="#000000" stroke-width="4.58333" stroke-linejoin="round" stroke-miterlimit="10" fill="none" fill-rule="evenodd"/><path d="M433.123 1085.34 4044.79 1085.34" stroke="#000000" stroke-width="4.58333" stroke-linejoin="round" stroke-miterlimit="10" fill="none" fill-rule="evenodd"/><path d="M433.123 1353.01 4044.79 1353.01" stroke="#000000" stroke-width="4.58333" stroke-linejoin="round" stroke-miterlimit="10" fill="none" fill-rule="evenodd"/><text font-family="Calibri,Calibri_MSFontService,sans-serif" font-weight="700" font-size="64" transform="matrix(1 0 0 1 3248.2 1162)">(custom) Comment</text><text font-family="Calibri,Calibri_MSFontService,sans-serif" font-weight="700" font-size="64" transform="matrix(1 0 0 1 2530.86 1162)">Symbol Code</text><text font-family="Calibri,Calibri_MSFontService,sans-serif" font-weight="700" font-size="64" transform="matrix(1 0 0 1 2034.83 1162)">Longitude </text><text font-family="Calibri,Calibri_MSFontService,sans-serif" font-weight="700" font-size="64" transform="matrix(1 0 0 1 1394.5 1162)">Symbol Table ID</text><text font-family="Calibri,Calibri_MSFontService,sans-serif" font-weight="700" font-size="64" transform="matrix(1 0 0 1 939.88 1162)">Latitude</text><text font-family="Calibri,Calibri_MSFontService,sans-serif" font-weight="700" font-size="64" transform="matrix(1 0 0 1 537.05 1162)">! or =</text><text font-family="Calibri,Calibri_MSFontService,sans-serif" font-weight="400" font-size="64" transform="matrix(1 0 0 1 3427.99 1296)">0</text><text font-family="Calibri,Calibri_MSFontService,sans-serif" font-weight="400" font-size="64" transform="matrix(1 0 0 1 3460.64 1296)">-</text><text font-family="Calibri,Calibri_MSFontService,sans-serif" font-weight="400" font-size="64" transform="matrix(1 0 0 1 3480.12 1296)">236</text><text font-family="Calibri,Calibri_MSFontService,sans-serif" font-weight="400" font-size="64" transform="matrix(1 0 0 1 2687.38 1296)">1</text><text font-family="Calibri,Calibri_MSFontService,sans-serif" font-weight="400" font-size="64" transform="matrix(1 0 0 1 2151.13 1296)">9</text><text font-family="Calibri,Calibri_MSFontService,sans-serif" font-weight="400" font-size="64" transform="matrix(1 0 0 1 1590.13 1296)">1</text><text font-family="Calibri,Calibri_MSFontService,sans-serif" font-weight="400" font-size="64" transform="matrix(1 0 0 1 1033.25 1296)">8</text><text font-family="Calibri,Calibri_MSFontService,sans-serif" font-weight="400" font-size="64" transform="matrix(1 0 0 1 590.045 1296)">1</text><path d="M611.937 1353.5 611.938 1431.42 605.063 1431.42 605.062 1353.5ZM622.25 1426.83 608.5 1454.33 594.75 1426.83Z" fill="#7F7F7F"/><text font-family="Calibri,Calibri_MSFontService,sans-serif" font-weight="400" font-size="64" transform="matrix(1 0 0 1 595.846 1539)">!</text><path d="M1052.94 1353.5 1052.94 1431.42 1046.06 1431.42 1046.06 1353.5ZM1063.25 1426.83 1049.5 1454.33 1035.75 1426.83Z" fill="#7F7F7F"/><text font-family="Calibri,Calibri_MSFontService,sans-serif" font-weight="400" font-size="64" transform="matrix(1 0 0 1 919.327 1534)">5252.00N</text><path d="M1614.94 1353.5 1614.94 1431.42 1608.06 1431.42 1608.06 1353.5ZM1625.25 1426.83 1611.5 1454.33 1597.75 1426.83Z" fill="#7F7F7F"/><text font-family="Calibri,Calibri_MSFontService,sans-serif" font-weight="400" font-size="64" transform="matrix(1 0 0 1 1596.62 1534)">/</text><text font-family="Calibri,Calibri_MSFontService,sans-serif" font-weight="400" font-size="64" transform="matrix(1 0 0 1 2023.85 1539)">01520.00E</text><path d="M2174.94 1357.5 2174.94 1435.42 2168.06 1435.42 2168.06 1357.5ZM2185.25 1430.83 2171.5 1458.33 2157.75 1430.83Z" fill="#7F7F7F"/><path d="M2713.94 1353.5 2713.94 1431.42 2707.06 1431.42 2707.06 1353.5ZM2724.25 1426.83 2710.5 1454.33 2696.75 1426.83Z" fill="#7F7F7F"/><text font-family="Calibri,Calibri_MSFontService,sans-serif" font-weight="400" font-size="64" transform="matrix(1 0 0 1 2683.86 1534)">O</text><path d="M3506.94 1352.5 3506.94 1710.51 3500.06 1710.51 3500.06 1352.5ZM3517.25 1705.93 3503.5 1733.43 3489.75 1705.93Z" fill="#7F7F7F"/><path d="M435.5 1744.5 4042.58 1744.5" stroke="#7F7F7F" stroke-width="6.875" stroke-miterlimit="8" fill="none" fill-rule="evenodd"/><path d="M435.414 1991.55 745.938 1991.55 745.938 2125.38 435.414 2125.38Z" fill="#000000" fill-rule="evenodd" fill-opacity="0.2"/><path d="M745.938 1991.55 1036.59 1991.55 1036.59 2125.38 745.938 2125.38Z" fill="#000000" fill-rule="evenodd" fill-opacity="0.2"/><path d="M1036.59 1991.55 1337.18 1991.55 1337.18 2125.38 1036.59 2125.38Z" fill="#000000" fill-rule="evenodd" fill-opacity="0.2"/><path d="M1337.18 1991.55 1637.78 1991.55 1637.78 2125.38 1337.18 2125.38Z" fill="#000000" fill-rule="evenodd" fill-opacity="0.2"/><path d="M1637.78 1991.55 1938.37 1991.55 1938.37 2125.38 1637.78 2125.38Z" fill="#000000" fill-rule="evenodd" fill-opacity="0.2"/><path d="M1938.37 1991.55 2238.96 1991.55 2238.96 2125.38 1938.37 2125.38Z" fill="#000000" fill-rule="evenodd" fill-opacity="0.2"/><path d="M2238.96 1991.55 2539.55 1991.55 2539.55 2125.38 2238.96 2125.38Z" fill="#000000" fill-rule="evenodd" fill-opacity="0.2"/><path d="M2539.55 1991.55 2840.14 1991.55 2840.14 2125.38 2539.55 2125.38Z" fill="#000000" fill-rule="evenodd" fill-opacity="0.2"/><path d="M2840.14 1991.55 3140.73 1991.55 3140.73 2125.38 2840.14 2125.38Z" fill="#000000" fill-rule="evenodd" fill-opacity="0.2"/><path d="M3140.73 1991.55 3441.32 1991.55 3441.32 2125.38 3140.73 2125.38Z" fill="#000000" fill-rule="evenodd" fill-opacity="0.2"/><path d="M3441.32 1991.55 3741.91 1991.55 3741.91 2125.38 3441.32 2125.38Z" fill="#000000" fill-rule="evenodd" fill-opacity="0.2"/><path d="M3741.91 1991.55 4042.5 1991.55 4042.5 2125.38 3741.91 2125.38Z" fill="#000000" fill-rule="evenodd" fill-opacity="0.2"/><path d="M745.938 1807.76 745.938 2127.67" stroke="#000000" stroke-width="4.58333" stroke-linejoin="round" stroke-miterlimit="10" fill="none" fill-rule="evenodd"/><path d="M1036.59 1807.76 1036.59 2127.67" stroke="#000000" stroke-width="4.58333" stroke-linejoin="round" stroke-miterlimit="10" fill="none" fill-rule="evenodd"/><path d="M1337.18 1807.76 1337.18 2127.67" stroke="#000000" stroke-width="4.58333" stroke-linejoin="round" stroke-miterlimit="10" fill="none" fill-rule="evenodd"/><path d="M1637.78 1807.76 1637.78 2127.67" stroke="#000000" stroke-width="4.58333" stroke-linejoin="round" stroke-miterlimit="10" fill="none" fill-rule="evenodd"/><path d="M1938.37 1807.76 1938.37 2127.67" stroke="#000000" stroke-width="4.58333" stroke-linejoin="round" stroke-miterlimit="10" fill="none" fill-rule="evenodd"/><path d="M2238.96 1807.76 2238.96 2127.67" stroke="#000000" stroke-width="4.58333" stroke-linejoin="round" stroke-miterlimit="10" fill="none" fill-rule="evenodd"/><path d="M2539.55 1807.76 2539.55 2127.67" stroke="#000000" stroke-width="4.58333" stroke-linejoin="round" stroke-miterlimit="10" fill="none" fill-rule="evenodd"/><path d="M2840.14 1807.76 2840.14 2127.67" stroke="#000000" stroke-width="4.58333" stroke-linejoin="round" stroke-miterlimit="10" fill="none" fill-rule="evenodd"/><path d="M3140.73 1807.76 3140.73 2127.67" stroke="#000000" stroke-width="4.58333" stroke-linejoin="round" stroke-miterlimit="10" fill="none" fill-rule="evenodd"/><path d="M3441.32 1807.76 3441.32 2127.67" stroke="#000000" stroke-width="4.58333" stroke-linejoin="round" stroke-miterlimit="10" fill="none" fill-rule="evenodd"/><path d="M3741.91 1807.76 3741.91 2127.67" stroke="#000000" stroke-width="4.58333" stroke-linejoin="round" stroke-miterlimit="10" fill="none" fill-rule="evenodd"/><path d="M433.123 1991.55 4044.79 1991.55" stroke="#000000" stroke-width="9.16667" stroke-linejoin="round" stroke-miterlimit="10" fill="none" fill-rule="evenodd"/><path d="M435.414 1807.76 435.414 2127.67" stroke="#000000" stroke-width="4.58333" stroke-linejoin="round" stroke-miterlimit="10" fill="none" fill-rule="evenodd"/><path d="M4042.5 1807.76 4042.5 2127.67" stroke="#000000" stroke-width="4.58333" stroke-linejoin="round" stroke-miterlimit="10" fill="none" fill-rule="evenodd"/><path d="M433.123 1810.05 4044.79 1810.05" stroke="#000000" stroke-width="4.58333" stroke-linejoin="round" stroke-miterlimit="10" fill="none" fill-rule="evenodd"/><path d="M433.123 2125.38 4044.79 2125.38" stroke="#000000" stroke-width="4.58333" stroke-linejoin="round" stroke-miterlimit="10" fill="none" fill-rule="evenodd"/><text font-family="Calibri,Calibri_MSFontService,sans-serif" font-weight="700" font-size="41" transform="matrix(1 0 0 1 3801.97 1866)">Additional</text><text font-family="Calibri,Calibri_MSFontService,sans-serif" font-weight="700" font-size="41" transform="matrix(1 0 0 1 3807.7 1915)">Comment</text><text font-family="Calibri,Calibri_MSFontService,sans-serif" font-weight="700" font-size="41" transform="matrix(1 0 0 1 3486.48 1866)">Additional 2</text><text font-family="Calibri,Calibri_MSFontService,sans-serif" font-weight="700" font-size="41" transform="matrix(1 0 0 1 3506.53 1915)">(optional)</text><text font-family="Calibri,Calibri_MSFontService,sans-serif" font-weight="700" font-size="41" transform="matrix(1 0 0 1 3185.76 1866)">Additional 1</text><text font-family="Calibri,Calibri_MSFontService,sans-serif" font-weight="700" font-size="41" transform="matrix(1 0 0 1 3205.81 1915)">(optional)</text><text font-family="Calibri,Calibri_MSFontService,sans-serif" font-weight="700" font-size="41" transform="matrix(1 0 0 1 2885.17 1866)">Additional 0</text><text font-family="Calibri,Calibri_MSFontService,sans-serif" font-weight="700" font-size="41" transform="matrix(1 0 0 1 2905.22 1915)">(optional)</text><text font-family="Calibri,Calibri_MSFontService,sans-serif" font-weight="700" font-size="41" transform="matrix(1 0 0 1 2610.2 1866)">GNSS</text><text font-family="Calibri,Calibri_MSFontService,sans-serif" font-weight="700" font-size="41" transform="matrix(1 0 0 1 2702.44 1866)">-</text><text font-family="Calibri,Calibri_MSFontService,sans-serif" font-weight="700" font-size="41" transform="matrix(1 0 0 1 2715.05 1866)">Sat </text><text font-family="Calibri,Calibri_MSFontService,sans-serif" font-weight="700" font-size="41" transform="matrix(1 0 0 1 2640.57 1915)">count</text><text font-family="Calibri,Calibri_MSFontService,sans-serif" font-weight="700" font-size="41" transform="matrix(1 0 0 1 2277.25 1866)">Solar voltage </text><text font-family="Calibri,Calibri_MSFontService,sans-serif" font-weight="700" font-size="41" transform="matrix(1 0 0 1 2322.51 1915)">[V*100]</text><text font-family="Calibri,Calibri_MSFontService,sans-serif" font-weight="700" font-size="41" transform="matrix(1 0 0 1 1978.09 1866)">MCU voltage </text><text font-family="Calibri,Calibri_MSFontService,sans-serif" font-weight="700" font-size="41" transform="matrix(1 0 0 1 2021.93 1915)">[V*100]</text><text font-family="Calibri,Calibri_MSFontService,sans-serif" font-weight="700" font-size="41" transform="matrix(1 0 0 1 1675.21 1866)">Temperature </text><text font-family="Calibri,Calibri_MSFontService,sans-serif" font-weight="700" font-size="41" transform="matrix(1 0 0 1 1728.21 1915)">[deg C] </text><text font-family="Calibri,Calibri_MSFontService,sans-serif" font-weight="700" font-size="41" transform="matrix(1 0 0 1 1430.19 1866)">Packet </text><text font-family="Calibri,Calibri_MSFontService,sans-serif" font-weight="700" font-size="41" transform="matrix(1 0 0 1 1420.45 1915)">counter</text><text font-family="Calibri,Calibri_MSFontService,sans-serif" font-weight="700" font-size="41" transform="matrix(1 0 0 1 1132.76 1866)">Flight</text><text font-family="Calibri,Calibri_MSFontService,sans-serif" font-weight="700" font-size="41" transform="matrix(1 0 0 1 1228.44 1866)">-</text><text font-family="Calibri,Calibri_MSFontService,sans-serif" font-weight="700" font-size="41" transform="matrix(1 0 0 1 1116.42 1915)">Number</text><text font-family="Calibri,Calibri_MSFontService,sans-serif" font-weight="700" font-size="41" transform="matrix(1 0 0 1 821.37 1866)">Altitude </text><text font-family="Calibri,Calibri_MSFontService,sans-serif" font-weight="700" font-size="41" transform="matrix(1 0 0 1 843.714 1915)">[feet]</text><text font-family="Calibri,Calibri_MSFontService,sans-serif" font-weight="700" font-size="41" transform="matrix(1 0 0 1 468.931 1866)">Course [deg] </text><text font-family="Calibri,Calibri_MSFontService,sans-serif" font-weight="700" font-size="41" transform="matrix(1 0 0 1 694.66 1866)">\</text><text font-family="Calibri,Calibri_MSFontService,sans-serif" font-weight="700" font-size="41" transform="matrix(1 0 0 1 472.369 1915)">Speed [knots] </text><text font-family="Calibri,Calibri_MSFontService,sans-serif" font-weight="400" font-size="46" transform="matrix(1 0 0 1 3885.33 2051)">-</text><text font-family="Calibri,Calibri_MSFontService,sans-serif" font-weight="400" font-size="46" transform="matrix(1 0 0 1 3584.74 2051)">-</text><text font-family="Calibri,Calibri_MSFontService,sans-serif" font-weight="400" font-size="46" transform="matrix(1 0 0 1 3284.15 2051)">-</text><text font-family="Calibri,Calibri_MSFontService,sans-serif" font-weight="400" font-size="46" transform="matrix(1 0 0 1 2983.56 2051)">-</text><text font-family="Calibri,Calibri_MSFontService,sans-serif" font-weight="400" font-size="46" transform="matrix(1 0 0 1 2682.97 2051)">-</text><text font-family="Calibri,Calibri_MSFontService,sans-serif" font-weight="400" font-size="46" transform="matrix(1 0 0 1 2382.38 2051)">-</text><text font-family="Calibri,Calibri_MSFontService,sans-serif" font-weight="400" font-size="46" transform="matrix(1 0 0 1 2081.79 2051)">-</text><text font-family="Calibri,Calibri_MSFontService,sans-serif" font-weight="400" font-size="46" transform="matrix(1 0 0 1 1781.2 2051)">-</text><text font-family="Calibri,Calibri_MSFontService,sans-serif" font-weight="400" font-size="46" transform="matrix(1 0 0 1 1480.6 2051)">-</text><text font-family="Calibri,Calibri_MSFontService,sans-serif" font-weight="400" font-size="46" transform="matrix(1 0 0 1 1180.01 2051)">-</text><text font-family="Calibri,Calibri_MSFontService,sans-serif" font-weight="400" font-size="46" transform="matrix(1 0 0 1 867.776 2051)">1</text><text font-family="Calibri,Calibri_MSFontService,sans-serif" font-weight="400" font-size="46" transform="matrix(1 0 0 1 891.266 2051)">0</text><text font-family="Calibri,Calibri_MSFontService,sans-serif" font-weight="400" font-size="41" transform="matrix(1 0 0 1 580.363 2047)">7</text><path d="M594.938 2131.5 594.938 2209.42 588.063 2209.42 588.063 2131.5ZM605.25 2204.83 591.5 2232.33 577.75 2204.83Z" fill="#7F7F7F"/><text font-family="Calibri,Calibri_MSFontService,sans-serif" font-weight="400" font-size="55" transform="matrix(1 0 0 1 469.99 2300)">042/190</text><path d="M895.937 2131.5 895.938 2209.42 889.063 2209.42 889.062 2131.5ZM906.25 2204.83 892.5 2232.33 878.75 2204.83Z" fill="#7F7F7F"/><path d="M1193.94 2131.5 1193.94 2209.42 1187.06 2209.42 1187.06 2131.5ZM1204.25 2204.83 1190.5 2232.33 1176.75 2204.83Z" fill="#7F7F7F"/><path d="M1494.94 2131.5 1494.94 2209.42 1488.06 2209.42 1488.06 2131.5ZM1505.25 2204.83 1491.5 2232.33 1477.75 2204.83Z" fill="#7F7F7F"/><path d="M1795.94 2131.5 1795.94 2209.42 1789.06 2209.42 1789.06 2131.5ZM1806.25 2204.83 1792.5 2232.33 1778.75 2204.83Z" fill="#7F7F7F"/><path d="M2096.94 2131.5 2096.94 2209.42 2090.06 2209.42 2090.06 2131.5ZM2107.25 2204.83 2093.5 2232.33 2079.75 2204.83Z" fill="#7F7F7F"/><path d="M2398.94 2131.5 2398.94 2209.42 2392.06 2209.42 2392.06 2131.5ZM2409.25 2204.83 2395.5 2232.33 2381.75 2204.83Z" fill="#7F7F7F"/><path d="M2699.94 2131.5 2699.94 2209.42 2693.06 2209.42 2693.06 2131.5ZM2710.25 2204.83 2696.5 2232.33 2682.75 2204.83Z" fill="#7F7F7F"/><path d="M3000.94 2131.5 3000.94 2209.42 2994.06 2209.42 2994.06 2131.5ZM3011.25 2204.83 2997.5 2232.33 2983.75 2204.83Z" fill="#7F7F7F"/><text font-family="Calibri,Calibri_MSFontService,sans-serif" font-weight="400" font-size="55" transform="matrix(1 0 0 1 755.592 2299)">/A=042000/</text><text font-family="Calibri,Calibri_MSFontService,sans-serif" font-weight="400" font-size="55" transform="matrix(1 0 0 1 1112.31 2299)">F42</text><text font-family="Calibri,Calibri_MSFontService,sans-serif" font-weight="400" font-size="55" transform="matrix(1 0 0 1 1444.34 2299)">N42</text><text font-family="Calibri,Calibri_MSFontService,sans-serif" font-weight="400" font-size="55" transform="matrix(1 0 0 1 1743.43 2299)">T</text><text font-family="Calibri,Calibri_MSFontService,sans-serif" font-weight="400" font-size="55" transform="matrix(1 0 0 1 1770.36 2299)">-</text><text font-family="Calibri,Calibri_MSFontService,sans-serif" font-weight="400" font-size="55" transform="matrix(1 0 0 1 1786.97 2299)">42</text><text font-family="Calibri,Calibri_MSFontService,sans-serif" font-weight="400" font-size="55" transform="matrix(1 0 0 1 2036.75 2299)">E342</text><text font-family="Calibri,Calibri_MSFontService,sans-serif" font-weight="400" font-size="55" transform="matrix(1 0 0 1 2340.8 2299)">Y342</text><text font-family="Calibri,Calibri_MSFontService,sans-serif" font-weight="400" font-size="55" transform="matrix(1 0 0 1 2653.72 2299)">S42</text><text font-family="Calibri,Calibri_MSFontService,sans-serif" font-weight="400" font-size="55" transform="matrix(1 0 0 1 2952.78 2299)">a42</text><path d="M3301.94 2131.5 3301.94 2209.42 3295.06 2209.42 3295.06 2131.5ZM3312.25 2204.83 3298.5 2232.33 3284.75 2204.83Z" fill="#7F7F7F"/><path d="M3602.94 2131.5 3602.94 2209.42 3596.06 2209.42 3596.06 2131.5ZM3613.25 2204.83 3599.5 2232.33 3585.75 2204.83Z" fill="#7F7F7F"/><path d="M3900.94 2131.5 3900.94 2209.42 3894.06 2209.42 3894.06 2131.5ZM3911.25 2204.83 3897.5 2232.33 3883.75 2204.83Z" fill="#7F7F7F"/><text font-family="Calibri,Calibri_MSFontService,sans-serif" font-weight="400" font-size="55" transform="matrix(1 0 0 1 3251.18 2299)">b42</text><text font-family="Calibri,Calibri_MSFontService,sans-serif" font-weight="400" font-size="55" transform="matrix(1 0 0 1 3556.26 2299)">c42</text><text font-family="Calibri,Calibri_MSFontService,sans-serif" font-weight="400" font-size="55" transform="matrix(1 0 0 1 3845.5 2299)">_73!</text><text font-family="Calibri,Calibri_MSFontService,sans-serif" font-weight="400" font-size="73" transform="matrix(1 0 0 1 240.314 558)">B</text><text font-family="Calibri,Calibri_MSFontService,sans-serif" font-weight="400" font-size="73" transform="matrix(1 0 0 1 279.708 558)">ytes</text><text font-family="Calibri,Calibri_MSFontService,sans-serif" font-weight="400" font-size="73" transform="matrix(1 0 0 1 240.314 1322)">B</text><text font-family="Calibri,Calibri_MSFontService,sans-serif" font-weight="400" font-size="73" transform="matrix(1 0 0 1 279.708 1322)">ytes</text><text font-family="Calibri,Calibri_MSFontService,sans-serif" font-weight="400" font-size="73" transform="matrix(1 0 0 1 239.203 2091)">B</text><text font-family="Calibri,Calibri_MSFontService,sans-serif" font-weight="400" font-size="73" transform="matrix(1 0 0 1 278.597 2091)">ytes</text><rect x="468.5" y="2484.5" width="63.9999" height="65" stroke="#2F5597" stroke-width="4.58333" stroke-miterlimit="8" fill="#2F5597"/><rect x="468" y="2610" width="64.0003" height="65"/><text font-family="Calibri,Calibri_MSFontService,sans-serif" font-weight="400" font-size="73" transform="matrix(1 0 0 1 567.85 2544)">Hex</text><text font-family="Calibri,Calibri_MSFontService,sans-serif" font-weight="400" font-size="73" transform="matrix(1 0 0 1 697.375 2544)">representation </text><text font-family="Calibri,Calibri_MSFontService,sans-serif" font-weight="400" font-size="73" transform="matrix(1 0 0 1 565.461 2666)">7</text><text font-family="Calibri,Calibri_MSFontService,sans-serif" font-weight="400" font-size="73" transform="matrix(1 0 0 1 602.7 2666)">-</text><text font-family="Calibri,Calibri_MSFontService,sans-serif" font-weight="400" font-size="73" transform="matrix(1 0 0 1 625.044 2666)">bit ASCII representation </text><text fill="#2F5597" font-family="Calibri,Calibri_MSFontService,sans-serif" font-weight="400" font-size="64" transform="matrix(1 0 0 1 497.695 777)">0x7E</text><text font-family="Calibri,Calibri_MSFontService,sans-serif" font-weight="400" font-size="64" transform="matrix(1 0 0 1 770.873 777)">APMON1</text><text font-family="Calibri,Calibri_MSFontService,sans-serif" font-weight="400" font-size="64" transform="matrix(1 0 0 1 1012.64 777)">-</text><text font-family="Calibri,Calibri_MSFontService,sans-serif" font-weight="400" font-size="64" transform="matrix(1 0 0 1 1032.12 777)">1</text><text font-family="Calibri,Calibri_MSFontService,sans-serif" font-weight="400" font-size="64" transform="matrix(1 0 0 1 1228.71 781)">D</text><text font-family="Calibri,Calibri_MSFontService,sans-serif" font-weight="400" font-size="64" transform="matrix(1 0 0 1 1268.24 781)">L9</text><text font-family="Calibri,Calibri_MSFontService,sans-serif" font-weight="400" font-size="64" transform="matrix(1 0 0 1 1327.82 781)">AS</text><text font-family="Calibri,Calibri_MSFontService,sans-serif" font-weight="400" font-size="64" transform="matrix(1 0 0 1 1394.28 781)">-</text><text font-family="Calibri,Calibri_MSFontService,sans-serif" font-weight="400" font-size="64" transform="matrix(1 0 0 1 1413.76 781)">1</text><text font-family="Calibri,Calibri_MSFontService,sans-serif" font-weight="400" font-size="64" transform="matrix(1 0 0 1 1602.38 781)">WIDE1</text><text font-family="Calibri,Calibri_MSFontService,sans-serif" font-weight="400" font-size="64" transform="matrix(1 0 0 1 1779.41 781)">-</text><text font-family="Calibri,Calibri_MSFontService,sans-serif" font-weight="400" font-size="64" transform="matrix(1 0 0 1 1798.89 781)">1</text><text fill="#2F5597" font-family="Calibri,Calibri_MSFontService,sans-serif" font-weight="400" font-size="64" transform="matrix(1 0 0 1 2086.24 777)">0x03</text><text fill="#2F5597" font-family="Calibri,Calibri_MSFontService,sans-serif" font-weight="400" font-size="64" transform="matrix(1 0 0 1 3846.89 781)">0x7E</text><text fill="#2F5597" font-family="Calibri,Calibri_MSFontService,sans-serif" font-weight="400" font-size="64" transform="matrix(1 0 0 1 2480.74 777)">0x0F</text></g></svg>